<?xml version="1.0" standalone="no"?>
<!DOCTYPE svg PUBLIC "-//W3C//DTD SVG 20010904//EN"
 "http://www.w3.org/TR/2001/REC-SVG-20010904/DTD/svg10.dtd">
<svg version="1.0" xmlns="http://www.w3.org/2000/svg"
 width="800.000000pt" height="203.000000pt" viewBox="0 0 800.000000 203.000000"
 preserveAspectRatio="xMidYMid meet">

<g transform="translate(0.000000,203.000000) scale(0.100000,-0.100000)"
fill="#000000" stroke="none">
<path d="M4425 1754 c-9 -9 -19 -30 -22 -46 -3 -16 -27 -53 -53 -81 -48 -52
-103 -81 -208 -107 -32 -8 -42 -15 -40 -28 4 -22 138 -46 186 -33 l32 9 0
-151 c2 -400 8 -714 14 -729 4 -9 18 -23 30 -31 19 -13 27 -13 54 -1 18 7 37
25 42 39 6 15 10 94 11 176 0 139 2 151 22 173 53 57 96 42 156 -57 24 -40 58
-90 75 -112 17 -22 45 -60 61 -85 17 -24 50 -72 75 -106 25 -34 53 -75 62 -90
72 -118 118 -176 202 -257 82 -79 155 -135 209 -160 47 -21 53 -21 61 -1 4 11
-14 37 -60 83 -37 36 -78 82 -93 101 -14 19 -43 53 -64 75 -21 22 -48 57 -58
78 -11 21 -40 68 -65 103 -24 36 -44 68 -44 71 0 3 -12 21 -26 40 -14 19 -39
62 -55 96 -42 86 -53 104 -83 136 -14 15 -26 30 -26 34 0 5 -9 17 -20 29 -32
35 -26 82 13 109 49 35 123 110 139 144 49 98 71 262 42 317 -26 50 -72 59
-118 23 -15 -12 -19 -31 -23 -107 -4 -116 -16 -153 -61 -200 -50 -53 -109 -73
-212 -73 l-85 0 -6 65 c-14 139 -10 355 7 401 43 117 45 128 24 149 -24 24
-73 26 -95 4z"/>
<path d="M6583 1668 c-13 -6 -25 -19 -28 -28 -8 -26 37 -118 89 -180 25 -30
46 -58 46 -62 0 -14 38 -8 43 6 8 20 -20 150 -46 216 -19 48 -26 55 -52 57
-16 1 -40 -3 -52 -9z"/>
<path d="M6798 1664 c-18 -9 -28 -23 -28 -38 0 -60 104 -226 142 -226 28 0 32
24 15 98 -9 37 -19 83 -22 102 -15 76 -49 96 -107 64z"/>
<path d="M7021 1667 c-43 -22 -47 -40 -20 -99 32 -71 121 -173 143 -165 28 11
14 96 -36 225 -22 56 -39 64 -87 39z"/>
<path d="M476 1663 c-1 -1 -51 -3 -111 -4 -100 -1 -110 -3 -132 -25 -31 -31
-19 -55 39 -78 41 -17 221 -38 245 -29 6 3 23 -3 37 -12 l26 -17 0 -423 c0
-460 -1 -471 -56 -514 -31 -24 -114 -51 -159 -51 -54 0 -129 28 -158 60 -19
19 -39 30 -56 30 -32 0 -71 -37 -71 -66 0 -34 78 -124 108 -124 5 0 15 -6 21
-14 18 -21 138 -40 219 -34 99 7 184 61 248 158 48 73 54 132 55 524 1 564 0
582 -29 602 -15 10 -53 15 -123 17 -55 1 -102 1 -103 0z"/>
<path d="M2181 1659 c-59 -12 -81 -69 -42 -108 19 -19 52 -24 244 -36 32 -2
64 -8 71 -14 11 -9 14 -61 14 -254 0 -133 2 -379 6 -546 7 -330 9 -341 63
-341 18 0 23 6 23 24 0 13 7 43 15 67 9 24 15 61 14 84 -2 57 9 224 16 234 3
5 5 162 5 349 1 316 6 401 28 402 4 0 37 2 73 3 42 2 76 9 93 20 24 16 26 22
20 55 -3 20 -10 41 -14 45 -7 8 -88 21 -120 19 -44 -1 -193 -1 -327 1 -84 1
-165 -1 -182 -4z"/>
<path d="M1270 1631 c-35 -5 -48 -12 -60 -34 -14 -26 -14 -29 10 -47 33 -25
92 -37 215 -45 70 -5 105 -12 118 -23 16 -14 17 -45 16 -434 -1 -449 -2 -459
-52 -506 -47 -45 -166 -65 -247 -42 -20 5 -53 26 -74 45 -21 19 -48 35 -61 35
-26 0 -62 -36 -67 -67 -3 -21 49 -102 66 -103 5 0 23 -11 41 -24 43 -33 105
-48 205 -50 70 -1 93 3 131 22 59 29 139 108 166 164 39 78 42 126 39 593 -3
523 -3 508 -16 500 -6 -3 -13 0 -16 8 -4 12 -37 15 -187 15 -100 -1 -202 -3
-227 -7z"/>
<path d="M1194 1412 c-8 -5 -13 -98 -17 -282 -4 -151 -8 -284 -10 -294 -6 -31
-46 -56 -87 -56 -31 0 -44 6 -65 32 l-27 31 8 204 c6 187 5 205 -11 223 -27
30 -80 27 -101 -6 -15 -22 -16 -46 -11 -197 4 -95 3 -198 -1 -230 -17 -112 34
-163 165 -168 75 -3 169 9 210 28 59 27 62 46 65 385 2 169 1 305 -1 302 -2
-2 -10 5 -18 16 -14 20 -75 28 -99 12z"/>
<path d="M2204 1414 c-8 -3 -10 -35 -7 -97 3 -51 0 -182 -5 -292 -10 -198 -10
-200 -37 -222 -37 -33 -94 -31 -126 3 l-24 26 3 212 c4 241 2 250 -67 244 -57
-5 -60 -18 -57 -299 2 -229 4 -250 22 -270 27 -30 43 -37 111 -48 65 -10 209
6 250 28 46 24 50 47 57 380 5 221 4 311 -3 306 -6 -3 -11 0 -11 8 0 8 -7 18
-16 21 -18 7 -73 7 -90 0z"/>
<path d="M3439 1392 c-45 -20 -44 -17 -39 -346 4 -226 8 -317 18 -333 27 -47
90 -65 242 -67 140 -2 202 56 180 171 -6 37 -8 121 -4 230 6 154 5 175 -10
199 -15 23 -23 25 -53 21 -67 -11 -66 -8 -58 -242 7 -203 6 -211 -14 -236 -42
-53 -130 -45 -151 14 -7 20 -14 138 -17 309 -6 270 -6 277 -27 282 -26 7 -47
6 -67 -2z"/>
<path d="M2915 1363 c-115 -4 -131 -8 -151 -37 -23 -36 -34 -151 -21 -241 5
-38 14 -57 36 -77 l30 -27 173 1 c202 0 248 -10 248 -59 0 -39 -21 -75 -45
-80 -11 -2 -110 -6 -220 -10 -128 -4 -203 -10 -207 -17 -13 -19 -9 -64 8 -80
13 -14 49 -16 234 -16 120 0 230 4 244 10 40 15 55 49 62 141 9 112 -1 175
-32 206 -24 24 -25 24 -219 22 -221 -2 -235 3 -235 67 0 55 21 61 235 73 105
6 199 12 210 13 26 4 42 50 28 81 -17 38 -53 41 -378 30z"/>
<path d="M5748 1313 c-9 -2 -19 -12 -22 -21 -3 -9 -6 -145 -8 -302 -2 -295 -2
-298 44 -473 28 -103 74 -182 108 -182 14 0 24 5 23 11 -37 209 -36 185 -29
634 4 342 4 341 -63 339 -20 -1 -44 -3 -53 -6z"/>
<path d="M6165 1313 c-114 -4 -131 -8 -150 -37 -26 -39 -36 -190 -17 -260 16
-60 41 -68 233 -71 96 -2 191 -6 212 -10 50 -10 64 -38 44 -87 -13 -31 -20
-36 -62 -41 -26 -4 -130 -7 -231 -7 l-184 0 -6 -27 c-4 -16 -2 -36 7 -52 l15
-26 224 -2 c139 -2 238 1 258 8 44 14 61 51 68 151 8 100 -6 159 -43 188 -26
20 -37 21 -227 19 -196 -2 -200 -2 -218 21 -28 35 -23 67 15 90 28 17 50 20
174 20 79 0 174 5 213 12 l71 12 -3 45 c-3 39 -7 46 -28 52 -25 7 -188 8 -365
2z"/>
<path d="M6710 1309 c-61 -25 -60 -18 -59 -302 0 -162 4 -267 10 -279 22 -40
67 -48 273 -48 211 0 249 7 244 42 -4 32 -89 47 -261 48 -121 0 -138 2 -145
18 -10 24 -7 141 4 152 5 5 80 11 166 13 163 4 188 11 188 48 0 32 -36 40
-198 47 l-157 7 -8 47 c-5 27 -5 63 -1 83 l9 35 167 5 c182 6 238 19 238 55 0
13 -10 24 -26 30 -33 13 -411 12 -444 -1z"/>
<path d="M7286 1275 c-18 -16 -26 -35 -26 -57 -3 -352 -2 -537 4 -555 4 -13
14 -23 22 -23 8 0 14 -4 14 -10 0 -17 56 -11 78 7 20 17 21 30 24 260 2 173 6
245 15 254 7 7 54 14 115 17 93 4 106 2 128 -16 l25 -20 2 -239 c1 -272 9
-342 52 -467 58 -169 126 -275 168 -262 21 7 21 7 -8 104 -16 53 -29 108 -29
122 0 14 -7 50 -15 80 -12 43 -17 137 -20 420 -5 349 -6 365 -25 385 -19 19
-34 20 -259 22 l-239 2 -26 -24z"/>
<path d="M5270 1284 c-60 -10 -104 -27 -128 -49 l-25 -24 -2 -198 c-1 -109 -5
-208 -8 -219 -5 -20 -10 -94 -8 -121 1 -7 6 -13 11 -13 6 0 23 -9 38 -20 24
-18 32 -19 60 -9 l32 11 0 129 c0 112 2 129 18 137 28 14 129 7 146 -11 9 -9
19 -49 26 -100 15 -119 30 -159 65 -169 60 -16 88 28 80 126 -3 33 -7 132 -10
218 -3 103 -9 168 -18 190 -18 42 -61 83 -109 102 -39 17 -127 27 -168 20z
m131 -141 c12 -13 18 -39 21 -87 l3 -69 -35 -10 c-23 -6 -47 -5 -71 2 -20 6
-45 11 -57 11 -28 0 -33 22 -21 80 14 66 57 105 108 96 19 -3 43 -13 52 -23z"/>
</g>
</svg>
